Patient4_TMGait_0pt3_03_right_21_EMG.mot
version=1
nRows=37
nColumns=33
inDegrees=no
endheader
time	1LAddLong	2LGlutMax	3LGlutMed	4LIliopsoas	5LSemiMemb	6LBicFemLong	7LRecFem	8LVastMed	9LVastLat	10LGasMed	11LTibAnt	12lTibPost	13LPeroneusLong	14LSol	15LExtDigLong	16LFlexDigLong	17RAddLong	18RGlutMax	19RGlutMed	20RIliopsoas	21RSemiMemb	22RBicFemLong	23RRecFem	24RVastMed	25RVastLat	26RGasMed	27RTibAnt	28RTibPost	29RPeroneusLong	30RSol	31RExtDigLong	32RFlexDigLong
39.23	0.02243	-0.1532	0.1535	0.015411	0.080261	-0.43655	0.009918	0.003662	0.22888	-0.021973	0.000916	0.03952	-0.30868	0.16205	-0.015259	0.05188	-0.056458	0.1358	1.2425	-0.037537	-0.010834	-0.17929	0.18555	-0.015717	-0.02243	0.001221	-0.86029	-0.000305	0.041809	0.005646	0.005493	-0.009613
39.231	0.036926	-0.25452	-0.00473	0.02655	0.11276	-0.64285	-0.061035	0.00885	0.29068	0.043488	0.005646	0.041199	0.14984	0.14053	0.021973	0.027313	-0.055237	0.10483	1.2743	0.068817	-0.004578	-0.16388	0.20126	0.10819	-0.011444	-0.004425	-0.65079	-0.000305	0.063019	0.004425	-0.005035	-0.002594
39.232	0.046387	-0.26077	-0.083313	0.000305	0.10819	-0.49881	-0.078888	0.010529	0.31036	0.027161	0.003357	0.001678	0.19836	0.031281	0.018158	-0.00061	-0.067749	0.13138	1.1891	0.14267	-0.000916	-0.16296	0.21896	0.19684	-0.001221	0.003967	-0.17578	0	0.072021	-0.024261	-0.003357	-0.017242
39.233	0.017395	-0.30868	-0.02533	-0.007629	0.049744	-0.345	0.043488	-0.009308	0.20111	0.013733	0.003815	0.030212	0.17349	-0.16525	0.004883	-0.012207	-0.027618	0.06958	1.1321	0.10773	-0.0177	-0.15579	0.18219	0.17563	-0.02182	0.001526	-0.19714	-0.000305	0.042114	0.001221	-0.005188	-0.017395
39.234	0.010376	-0.33524	-0.00885	0.010071	-0.008698	-0.21042	0.097961	-0.007935	-0.1358	-0.006866	0.016632	0.01358	-0.003052	-0.10254	-0.020599	-0.020142	0.001831	0.10941	1.5047	0.067902	-0.028229	-0.1384	0.19592	0.13794	-0.010529	0.00412	0.23804	-0.000763	0.016632	-0.025635	-0.001526	-0.02243
39.235	0.013123	-0.28366	-0.045471	0.008698	0.014038	-0.095825	0.046234	0.010071	-0.5455	-0.02121	0.004883	-0.042725	0.21896	0.15015	-0.019226	0.013275	-0.056	0.16403	1.2718	0.008698	-0.020752	-0.13458	0.18539	0.17227	-0.00061	0.003052	0.30991	-0.000763	0.02533	-0.000458	-0.005341	-0.025024
39.236	0.013123	-0.2562	-0.096283	-0.019531	0.018005	-0.009918	-0.04715	0.007477	-0.44128	-0.015869	-0.039215	-0.15793	0.27847	0.27222	0.040894	0.015869	-0.071259	0.11887	1.5579	-0.11643	-0.024109	-0.12985	0.17197	0.1059	0.005341	0	0.3096	0.001526	-0.005798	0.017395	-0.005646	-0.025787
39.237	0.001526	-0.2475	-0.053558	-0.018616	0.04425	-0.059052	-0.19516	0.006714	-0.25131	-0.001678	-0.001984	0.015259	0.07019	-0.21698	0.01358	0.023956	-0.11337	0.12619	1.5329	-0.098877	-0.046844	-0.13687	0.17838	0.11917	-0.000153	-0.004883	0.36301	-0.003662	-0.030518	0.035858	-0.006866	-0.020599
39.238	-0.007477	-0.28168	-0.18997	-0.006866	-0.002441	-0.003967	-0.30518	0.03006	-0.1712	0.10757	-0.014343	0.12405	0.009308	-0.52582	0.009918	-0.001373	-0.17181	0.12528	1.6644	-0.035095	-0.037689	-0.13199	0.14526	0.13443	0.023804	-0.006104	0.18631	-0.001526	-0.041809	0.072021	-0.005341	-0.01709
39.239	-0.011749	-0.26657	-0.16235	0.000458	-0.070801	0.04776	-0.16022	0.014648	-0.027008	0.11749	-0.005188	-0.035095	-0.026398	-0.40192	0.055695	-0.046692	-0.13886	0.097504	1.6188	0.0354	-0.04303	-0.13138	0.10956	0.15106	0.028839	0.011444	-0.16983	-0.008545	0.13504	-0.015411	-0.005341	-0.010986
39.24	-0.00351	-0.27618	-0.18494	0.018005	0.002136	0.018005	0.001678	0.004425	0.13489	0.46204	0.023804	0.09201	-0.012512	0.020447	-0.007782	-0.096893	-0.12497	0.020142	1.2672	0.05249	-0.033417	-0.14053	0.098877	0.1413	0.018616	0.01709	-0.58166	0.000153	0.25681	-0.097504	-0.004272	-0.00473
39.241	-0.005341	-0.28351	-0.36697	0.019226	0.06485	-0.0177	0.20599	-0.00061	0.22125	0.63217	0.013733	-0.041962	0.068512	0.54275	-0.015869	-0.1268	-0.090485	-0.003052	1.0823	0.13504	-0.029907	-0.12589	0.13931	0.14664	0.009155	0.013733	-0.73273	-0.000916	0.1712	-0.10483	-0.00412	-0.00473
39.242	0.00412	-0.29755	-0.5191	0.012054	0.060425	-0.019226	0.22507	0.007172	0.056763	0.86609	0.019836	-0.074615	0.065155	0.35126	0.054932	-0.025787	-0.050507	-0.002136	0.8876	0.004425	-0.03479	-0.13519	0.15411	0.057831	0.021362	0.00061	-0.78919	-0.006866	-0.052643	-0.007629	-0.002289	-0.011597
39.243	0.006866	-0.22415	-0.33875	0.034027	0.050659	0.044708	0.14801	0.011749	-0.081024	0.45471	0.021515	0.005188	-0.050964	-0.16495	0.11643	0.23422	-0.020142	0.039825	0.78842	-0.098572	-0.038147	-0.12787	0.14923	0.048523	0.004425	-0.009613	-0.44723	-0.003967	-0.12787	-0.03006	0.003052	-0.013733
39.244	0.020142	-0.21271	-0.091705	0.011597	0.021362	0.12924	0.14801	0.010681	-0.12314	-0.48141	0.01709	0.13947	-0.31982	-0.49911	-0.024261	0.13855	0.026703	0.095215	0.96741	-0.17059	-0.056152	-0.14801	0.19043	0.019531	0.002136	-0.013123	-0.38361	-0.009308	-0.1268	-0.006104	-0.002136	-0.006104
39.245	0.012665	-0.23193	0.44479	0.001373	0.041199	0.11246	0.078278	0.009766	-0.08255	-0.64529	-0.010681	0.31158	-0.000916	-0.3923	-0.16251	-0.21057	0.091705	0.12772	0.97366	-0.24033	-0.060425	-0.12833	0.15671	0.02594	0.022736	-0.012817	-0.4068	-0.002899	-0.020142	-0.032654	-0.002136	-0.007782
39.246	0.001526	-0.20691	0.29968	-0.012665	0.028687	0.08316	0.096893	-0.000153	-0.04364	-0.42297	-0.043182	-0.19592	0.53451	0.34882	-0.043335	0.13809	0.061951	0.052338	0.8606	-0.20126	-0.071106	-0.12375	0.17532	-0.014496	0.018311	0.004425	-0.18433	-0.002136	0.14023	-0.18143	-0.002136	0.001526
39.247	0.01358	-0.2272	0.1564	-0.003662	0.010071	0.12116	0.099792	-0.00412	-0.041962	-0.17807	-0.027008	0.067139	0.4834	0.73761	-0.005035	0.072479	-0.02533	0.008698	0.81863	0.009003	-0.083466	-0.13779	0.14587	-0.003815	0.017853	0.01709	-0.095062	-0.004578	0.31784	-0.29984	-0.001373	0.00412
39.248	0.006409	-0.16159	0.072174	-0.01297	-0.011139	0.20783	0.009308	-0.003052	-0.029602	0.15793	0.003967	-0.053558	0.57037	0.09552	0.002594	-0.032043	-0.046692	0.046692	0.70328	-0.00824	-0.095215	-0.13138	0.17197	-0.019684	0.016022	0.020294	0.22659	-0.001373	0.21545	-0.23086	-0.003662	0.005951
39.249	0.004272	-0.16586	0.09613	-0.026855	-0.001068	0.12573	0.11231	0.004272	-0.058289	-0.10101	0.00412	-0.06012	0.37399	-0.34286	0.010681	-0.005341	-0.070801	0.032196	0.54443	-0.095062	-0.09491	-0.13321	0.1387	-0.011444	0.006714	0.003052	0.62836	-0.000916	-0.018921	-0.087433	-0.003662	-0.005798
39.25	0.014191	-0.13489	0.1236	0.013275	0.014954	-0.10391	0.066223	0.014496	-0.082855	-0.15656	0.000305	-0.051422	-0.50629	-0.21225	-0.020599	-0.022736	-0.046997	0.044861	0.7251	0.060577	-0.1004	-0.12146	0.1445	-0.026703	0.019226	-0.007629	-0.031586	-0.003204	-0.13458	-0.056152	-0.005493	-0.012817
39.251	0.009766	-0.054016	0.14008	-0.002899	0.045624	-0.071106	0.029602	0.020905	0.13779	-0.11032	0.028839	-0.022278	-0.59601	0.028687	-0.038452	-0.02121	-0.014648	0.028992	0.76004	0.1387	-0.092468	-0.11658	0.12634	-0.030212	0.019989	-0.015259	0.2977	-0.003662	-0.21042	0.067902	-0.005188	-0.014038
39.252	0.000763	-0.003662	0.053253	0.009003	0.031586	0.04776	-0.010986	0.022888	0.27039	-0.11673	0.000763	-0.043793	0.54275	-0.00824	-0.02533	-0.010376	0.0383	0.016632	0.32425	0.07309	-0.070496	-0.11169	0.13275	0.028839	0.016632	-0.009613	0.28351	-0.002441	-0.075531	0.15762	-0.006256	-0.016937
39.253	-0.000458	-0.079346	-0.041962	0.020447	-0.005798	0.081787	-0.09964	0.00885	0.29602	-0.14206	-0.05127	-0.039215	0.44891	-0.003052	-0.031586	0.008545	0.054016	-0.07782	0.04303	-0.050659	-0.068512	-0.10635	0.1059	0.031891	0.015869	-0.001984	-0.059204	-0.003967	-0.037537	0.098267	-0.00351	-0.009918
39.254	-0.006104	-0.03479	-0.19836	0.014648	-0.037994	0.098114	-0.14511	-0.014343	0.31067	-0.10498	-0.021057	-0.021362	-0.51987	0.004425	-0.053864	0.007782	0.06012	-0.083466	-0.1976	-0.032654	-0.071411	-0.086517	0.086365	0.008392	0.010529	-0.003662	-0.15167	-0.00351	-0.001068	0.05661	-0.003052	-0.019684
39.255	-0.005951	0.016937	-0.21927	0.013885	-0.056915	0.095062	-0.09613	-0.013428	0.31555	-0.057983	-0.014191	-0.008392	-0.33447	-0.15503	-0.13107	0.011292	0.067596	-0.084991	0.22446	0.11841	-0.07431	-0.08667	0.11581	0.048981	0.035706	-0.007324	0.039978	-0.001831	0.027161	0.097961	-0.00824	-0.011292
39.256	-0.017242	0.027771	-0.17639	0.021057	0.034485	0.10544	0.043335	-0.01297	0.25177	0.011292	0.014038	-0.019989	-0.18433	-0.29434	-0.078125	0.001831	0.064392	-0.065613	0.42969	0.38025	-0.067139	-0.083313	0.14252	0.020905	0.031586	-0.004883	0.17395	-0.00351	-0.027771	0.076447	-0.003967	-0.011597
39.257	-0.0177	0.049744	0.066681	0.018616	0.066223	0.10101	0.008087	-0.014801	0.13825	0.006866	0.005798	-0.070343	-0.085449	-0.28214	0.041351	-0.001984	0.085297	-0.05249	0.43289	0.42969	-0.047913	-0.070648	0.13458	0.080566	0.00473	-0.006561	0.27573	-0.00473	-0.069733	0.062714	-0.00351	-0.010986
39.258	-0.021057	-0.007477	0.14862	0.012054	0.032501	-0.090179	0.018005	-0.016632	-0.096893	0.019836	-0.012054	-0.03952	-0.27222	-0.032349	0.036163	0.015259	0.072937	-0.033569	0.46402	0.31876	-0.022888	-0.072174	0.19134	0.12283	0.027313	-0.007629	0.12848	-0.006866	-0.11612	0.018921	-0.004425	-0.008545
39.259	-0.010071	-0.053253	0.17227	-0.026703	0.017395	-0.011292	0.043182	-0.012207	-0.024414	0.030823	-0.018158	-0.013733	0.092163	0.33707	0.053864	0.014954	0.093231	-0.098724	0.37384	0.14542	-0.02655	-0.066528	0.14679	0.1239	0.004272	-0.003662	0.23865	-0.003357	-0.21301	-0.032959	-0.002136	-0.009155
39.26	-0.019684	-0.042267	0.19012	-0.019379	-0.025177	0.00412	0.13702	-0.003662	0.12253	0.046844	-0.00061	-0.020447	0.159	0.43411	0.039215	0.004272	0.095215	-0.085449	0.51178	0.013885	-0.037994	-0.083313	0.17532	0.095062	0.010529	-0.00473	0.4364	-0.001526	-0.24063	0.08316	-0.002289	0.001373
39.261	-0.019226	-0.018311	0.13016	-0.003967	-0.062561	-0.002289	0.19836	0.006104	0.11536	0.037384	0.023499	-0.009613	0.39764	0.24139	0.058899	0.00824	0.067902	-0.089874	0.34058	-0.027008	-0.032501	-0.076294	0.15182	0.10956	0.008545	0.003967	0.95917	-0.001984	-0.10147	-0.007324	0.000153	-0.009155
39.262	-0.023804	0.042267	0.10208	0.006104	-0.056152	0.037231	0.16388	0.000763	-0.1416	0.024261	-0.004578	-0.017853	0.22476	0.22186	0.079498	-0.003662	0.035858	-0.076141	0.49179	-0.043945	-0.033569	-0.070801	0.15579	0.11154	0.016327	-0.00061	0.83038	0.009003	0.065765	-0.097809	-0.001678	-0.006866
39.263	0.000305	-0.068817	-0.085449	-0.001373	-0.014648	0.075989	0.12894	0.016022	-0.55115	0.072479	0.001831	-0.012817	-0.57297	0.37781	0.036774	0.009003	-0.004272	-0.046234	0.17502	-0.080719	-0.03891	-0.066528	0.14191	0.099182	0.009155	0.00061	0.21668	-0.001373	0.12222	0.001831	-0.004272	0.001984
39.264	0.016022	-0.05249	-0.28275	0.02243	0.036774	0.095673	0.08728	0.016785	-0.57404	0.074463	-0.008392	-0.017395	-0.078583	0.2327	0.013275	-0.015411	-0.036316	-0.047607	0.29297	-0.16068	-0.050964	-0.075531	0.11292	0.097351	0.017242	-0.005341	-0.57129	-0.002136	0.16693	0.029297	-0.00412	-0.015259
39.265	0.011902	0.036774	-0.2005	-0.009003	-0.045013	0.076141	0.12146	0.007629	-0.27847	0.047455	0.010223	-0.011902	-0.43701	0.15915	0.10925	-0.009766	-0.060272	-0.034027	0.13245	-0.17181	-0.051575	-0.056915	0.12039	0.12497	0.028839	-0.007935	-1.4224	-0.004425	0.10696	-0.001068	-0.004578	-0.005646
39.266	0.000763	0.010681	0.068054	-0.007172	-0.054626	0.000763	0.15091	-0.007019	-0.097046	0.034332	0.012512	-0.002594	0.06012	-0.013275	0.12634	0.017242	-0.065308	-0.10651	0.12131	-0.18738	-0.043945	-0.083466	0.18326	0.050507	0.025024	0.001068	-1.3542	-0.004425	0.003357	-0.084839	0.001831	-0.009766
